<?xml version="1.0" encoding="UTF-8"?>
<!DOCTYPE svg PUBLIC "-//W3C//DTD SVG 1.1//EN" "http://www.w3.org/Graphics/SVG/1.1/DTD/svg11.dtd">
<!-- Creator: CorelDRAW -->
<svg xmlns="http://www.w3.org/2000/svg" xml:space="preserve" width="106.893mm" height="11.6125mm" version="1.1" style="shape-rendering:geometricPrecision; text-rendering:geometricPrecision; image-rendering:optimizeQuality; fill-rule:evenodd; clip-rule:evenodd"
viewBox="0 0 1735.86 188.58"
 xmlns:xlink="http://www.w3.org/1999/xlink"
 xmlns:xodm="http://www.corel.com/coreldraw/odm/2003">
 <defs>
  <style type="text/css">
   <![CDATA[
    .fil0 {fill:black;fill-rule:nonzero}
   ]]>
  </style>
 </defs>
 <g id="Camada_x0020_1">
  <metadata id="CorelCorpID_0Corel-Layer"/>
  <path class="fil0" d="M183 132.13c0,6.54 -0.83,12.42 -2.48,17.65 -1.66,5.27 -3.84,9.85 -6.54,13.86 -2.75,4.01 -5.93,7.41 -9.59,10.25 -3.66,2.79 -7.45,5.1 -11.38,6.89 -3.92,1.79 -7.89,3.1 -11.94,3.97 -4.05,0.83 -7.85,1.26 -11.42,1.26l-128.12 0 0 -33.22 128.12 0c6.36,0 11.33,-1.87 14.87,-5.62 3.53,-3.75 5.32,-8.76 5.32,-15.04 0,-3.1 -0.48,-5.89 -1.39,-8.46 -0.96,-2.53 -2.31,-4.75 -4.05,-6.63 -1.74,-1.87 -3.88,-3.31 -6.36,-4.36 -2.53,-1 -5.32,-1.53 -8.37,-1.53l-76.37 0c-5.36,0 -11.16,-0.96 -17.35,-2.88 -6.23,-1.92 -11.99,-4.97 -17.31,-9.24 -5.36,-4.27 -9.76,-9.85 -13.3,-16.74 -3.53,-6.89 -5.32,-15.3 -5.32,-25.28 0,-9.98 1.79,-18.35 5.32,-25.24 3.53,-6.84 7.93,-12.42 13.3,-16.7 5.32,-4.31 11.07,-7.41 17.31,-9.33 6.19,-1.92 11.99,-2.88 17.35,-2.88l113.03 0 0 33.17 -113.03 0c-6.32,0 -11.2,1.92 -14.74,5.75 -3.53,3.84 -5.32,8.89 -5.32,15.21 0,6.36 1.79,11.42 5.32,15.13 3.53,3.71 8.41,5.58 14.74,5.58l76.37 0 0.26 0c3.57,0.09 7.37,0.57 11.33,1.44 4.01,0.92 8.02,2.31 11.94,4.14 3.97,1.87 7.76,4.27 11.34,7.11 3.57,2.88 6.76,6.28 9.5,10.29 2.75,4.01 4.97,8.59 6.58,13.77 1.61,5.19 2.4,11.07 2.4,17.66z"/>
  <path id="_1" class="fil0" d="M393.63 171.84c0,2.35 -0.48,4.58 -1.35,6.63 -0.92,2.05 -2.09,3.84 -3.57,5.32 -1.48,1.48 -3.27,2.66 -5.32,3.49 -2.05,0.87 -4.18,1.31 -6.5,1.31 -2.05,0 -4.1,-0.39 -6.19,-1.18 -2.09,-0.74 -3.97,-2.01 -5.58,-3.71l-121.32 -126.68 0 128.99 -33.22 0 0 -168.96c0,-3.4 0.96,-6.49 2.88,-9.24 1.92,-2.79 4.36,-4.84 7.37,-6.19 3.14,-1.31 6.36,-1.61 9.68,-0.96 3.36,0.61 6.19,2.18 8.59,4.62l121.32 126.59 0 -128.99 33.22 0 0 168.96z"/>
  <path id="_2" class="fil0" d="M611.9 186.01l-33.22 0 0 -44.94 -116.74 0 0 44.94 -33.22 0 0 -91.59c0,-13.34 2.31,-25.68 6.89,-36.88 4.62,-11.25 10.99,-20.92 19.18,-28.99 8.15,-8.11 17.83,-14.38 28.99,-18.92 11.16,-4.49 23.32,-6.76 36.53,-6.76l74.85 0c2.27,0 4.45,0.44 6.5,1.27 2.05,0.87 3.84,2.05 5.36,3.57 1.53,1.52 2.75,3.31 3.58,5.36 0.87,2.05 1.31,4.23 1.31,6.54l0 166.39zm-149.96 -78.16l116.74 0 0 -71.8 -58.37 0c-1.05,0 -3.18,0.17 -6.45,0.48 -3.27,0.31 -7.06,1.05 -11.38,2.22 -4.27,1.18 -8.8,3.01 -13.6,5.49 -4.75,2.49 -9.15,5.89 -13.17,10.2 -3.97,4.36 -7.28,9.81 -9.89,16.3 -2.57,6.5 -3.88,14.39 -3.88,23.67l0 13.43z"/>
  <path id="_3" class="fil0" d="M832.95 79.51c0,7.54 -0.96,14.34 -2.83,20.27 -1.87,5.97 -4.4,11.25 -7.59,15.78 -3.18,4.58 -6.89,8.46 -11.03,11.68 -4.18,3.27 -8.54,5.89 -13.12,7.93 -4.53,2.05 -9.15,3.53 -13.77,4.45 -4.62,0.96 -8.98,1.44 -13.08,1.44l-75.11 0 0 -33.22 75.11 0c4.23,-0.35 8.11,-1.22 11.55,-2.62 3.44,-1.39 6.41,-3.31 8.89,-5.67 2.44,-2.4 4.36,-5.27 5.71,-8.63 1.39,-3.36 2.05,-7.19 2.05,-11.42l0 -15.08c-0.44,-4.18 -1.31,-8.02 -2.66,-11.51 -1.39,-3.49 -3.23,-6.45 -5.58,-8.94 -2.31,-2.44 -5.14,-4.4 -8.5,-5.8 -3.31,-1.39 -7.15,-2.14 -11.46,-2.14l-74.85 0c-4.45,0 -7.8,1.18 -10.11,3.49 -2.27,2.27 -3.44,5.62 -3.44,9.94l0 136.53 -33.17 0 0 -136.53c0,-8.5 1.53,-15.74 4.67,-21.71 3.1,-5.97 6.97,-10.77 11.59,-14.43 4.66,-3.66 9.68,-6.32 15.13,-7.98 5.45,-1.66 10.51,-2.48 15.08,-2.48l75.11 0c7.5,0 14.21,0.96 20.18,2.88 5.93,1.92 11.2,4.45 15.74,7.67 4.58,3.18 8.46,6.84 11.64,11.03 3.18,4.18 5.84,8.54 7.93,13.08 2.09,4.58 3.57,9.15 4.53,13.82 0.92,4.62 1.39,8.98 1.39,13.08l0 15.08z"/>
  <path id="_4" class="fil0" d="M1120 132.13c0,6.54 -0.83,12.42 -2.48,17.65 -1.66,5.27 -3.84,9.85 -6.54,13.86 -2.75,4.01 -5.93,7.41 -9.59,10.25 -3.66,2.79 -7.45,5.1 -11.38,6.89 -3.92,1.79 -7.89,3.1 -11.94,3.97 -4.05,0.83 -7.85,1.26 -11.42,1.26l-128.12 0 0 -33.22 128.12 0c6.36,0 11.33,-1.87 14.87,-5.62 3.53,-3.75 5.32,-8.76 5.32,-15.04 0,-3.1 -0.48,-5.89 -1.39,-8.46 -0.96,-2.53 -2.31,-4.75 -4.05,-6.63 -1.74,-1.87 -3.88,-3.31 -6.36,-4.36 -2.53,-1 -5.32,-1.53 -8.37,-1.53l-76.37 0c-5.36,0 -11.16,-0.96 -17.35,-2.88 -6.23,-1.92 -11.99,-4.97 -17.31,-9.24 -5.36,-4.27 -9.76,-9.85 -13.3,-16.74 -3.53,-6.89 -5.32,-15.3 -5.32,-25.28 0,-9.98 1.79,-18.35 5.32,-25.24 3.53,-6.84 7.93,-12.42 13.3,-16.7 5.32,-4.31 11.07,-7.41 17.31,-9.33 6.19,-1.92 11.99,-2.88 17.35,-2.88l113.03 0 0 33.17 -113.03 0c-6.32,0 -11.2,1.92 -14.74,5.75 -3.53,3.84 -5.32,8.89 -5.32,15.21 0,6.36 1.79,11.42 5.32,15.13 3.53,3.71 8.41,5.58 14.74,5.58l76.37 0 0.26 0c3.57,0.09 7.37,0.57 11.33,1.44 4.01,0.92 8.02,2.31 11.94,4.14 3.97,1.87 7.76,4.27 11.34,7.11 3.57,2.88 6.76,6.28 9.5,10.29 2.75,4.01 4.97,8.59 6.58,13.77 1.61,5.19 2.4,11.07 2.4,17.66z"/>
  <path id="_5" class="fil0" d="M1320.39 64.17c0,7.59 -0.96,14.34 -2.88,20.31 -1.92,5.97 -4.45,11.2 -7.59,15.78 -3.14,4.53 -6.84,8.46 -11.03,11.68 -4.23,3.23 -8.59,5.89 -13.12,7.98 -4.49,2.09 -9.07,3.57 -13.73,4.53 -4.62,0.92 -8.98,1.39 -13.08,1.39l-13.38 0 0 60.16 -33.48 0 0 -60.16 -13.3 0c-4.05,0 -8.46,-0.48 -13.08,-1.39 -4.62,-0.96 -9.24,-2.44 -13.78,-4.53 -4.58,-2.09 -8.94,-4.75 -13.12,-7.98 -4.14,-3.23 -7.85,-7.15 -11.03,-11.68 -3.18,-4.58 -5.75,-9.85 -7.67,-15.87 -1.92,-5.97 -2.88,-12.73 -2.88,-20.23l0 -61.29 33.22 0 0 61.29c0,4.36 0.7,8.24 2.05,11.68 1.35,3.44 3.27,6.41 5.76,8.89 2.44,2.44 5.45,4.36 8.98,5.67 3.53,1.31 7.5,2 11.81,2l59.9 0c3.14,-0.52 6.41,-1.18 9.72,-2 3.31,-0.79 6.32,-2.18 9.07,-4.14 2.7,-1.96 4.97,-4.71 6.76,-8.19 1.79,-3.49 2.7,-8.11 2.7,-13.91l0 -61.29 33.17 0 0 61.29z"/>
  <path id="_6" class="fil0" d="M1533.34 171.84c0,2.35 -0.48,4.58 -1.35,6.63 -0.92,2.05 -2.09,3.84 -3.57,5.32 -1.48,1.48 -3.27,2.66 -5.32,3.49 -2.05,0.87 -4.18,1.31 -6.5,1.31 -2.05,0 -4.1,-0.39 -6.19,-1.18 -2.09,-0.74 -3.97,-2.01 -5.58,-3.71l-121.32 -126.68 0 128.99 -33.22 0 0 -168.96c0,-3.4 0.96,-6.49 2.88,-9.24 1.92,-2.79 4.36,-4.84 7.37,-6.19 3.14,-1.31 6.36,-1.61 9.68,-0.96 3.36,0.61 6.19,2.18 8.59,4.62l121.32 126.59 0 -128.99 33.22 0 0 168.96z"/>
  <path id="_7" class="fil0" d="M1735.86 186.01l-119.79 0c-3.05,0 -6.36,-0.35 -9.9,-1.09 -3.53,-0.7 -7.02,-1.83 -10.46,-3.4 -3.44,-1.52 -6.76,-3.49 -9.89,-5.93 -3.18,-2.4 -5.93,-5.36 -8.37,-8.8 -2.44,-3.44 -4.36,-7.45 -5.8,-11.99 -1.48,-4.58 -2.18,-9.72 -2.18,-15.39l0 -89.93c0,-3.05 0.35,-6.36 1.09,-9.9 0.7,-3.53 1.83,-7.02 3.36,-10.46 1.53,-3.44 3.53,-6.76 6.02,-9.9 2.48,-3.14 5.4,-5.93 8.89,-8.37 3.44,-2.44 7.41,-4.36 11.94,-5.8 4.49,-1.48 9.59,-2.18 15.3,-2.18l119.79 0 0 33.17 -119.79 0c-4.36,0 -7.67,1.18 -9.94,3.49 -2.31,2.27 -3.49,5.67 -3.49,10.2l0 89.67c0,4.23 1.18,7.54 3.53,9.9 2.35,2.31 5.62,3.49 9.9,3.49l119.79 0 0 33.22z"/>
 </g>
</svg>
